<svg version="1.1" xmlns="http://www.w3.org/2000/svg" viewBox="0 0 653.0500030517578 264" width="653.0500030517578" height="264" filter="invert(93%) hue-rotate(180deg)">
  <!-- svg-source:excalidraw -->
  
  <defs>
    <style class="style-fonts">
      @font-face {
        font-family: "Virgil";
        src: url("https://excalidraw.com/Virgil.woff2");
      }
      @font-face {
        font-family: "Cascadia";
        src: url("https://excalidraw.com/Cascadia.woff2");
      }
      @font-face {
        font-family: "Assistant";
        src: url("https://excalidraw.com/Assistant-Regular.woff2");
      }
    </style>
    
  </defs>
  <rect x="0" y="0" width="653.0500030517578" height="264" fill="#ffffff"></rect><g stroke-linecap="round" transform="translate(113 77) rotate(0 216.5 26)"><path d="M13 0 C126.02 0.54, 236.47 1.06, 420 0 M13 0 C171.18 -1.72, 330.68 -1.06, 420 0 M420 0 C430.48 0.39, 431.57 4.32, 433 13 M420 0 C430.82 -0.93, 434.22 5.01, 433 13 M433 13 C433.18 18.81, 434.1 26.21, 433 39 M433 13 C433.85 18.73, 433.61 25.29, 433 39 M433 39 C433.91 47.12, 427.96 50.03, 420 52 M433 39 C434.28 47.51, 428.71 52.74, 420 52 M420 52 C285.26 49.84, 149.32 50.6, 13 52 M420 52 C317.22 52.69, 214.72 52.18, 13 52 M13 52 C3.05 51.37, 0.84 45.96, 0 39 M13 52 C4.49 50.16, -1.34 46.88, 0 39 M0 39 C-0.07 29.99, -0.87 22.37, 0 13 M0 39 C-0.72 32.43, -0.99 27.46, 0 13 M0 13 C1.09 5.3, 3.26 -0.55, 13 0 M0 13 C0.7 4.64, 3.3 -0.26, 13 0" stroke="#1e1e1e" stroke-width="1" fill="none"></path></g><g transform="translate(10 93) rotate(0 36.099998474121094 12.5)"><text x="0" y="17.52" font-family="Virgil, Segoe UI Emoji" font-size="20px" fill="#1e1e1e" text-anchor="start" style="white-space: pre;" direction="ltr" dominant-baseline="alphabetic">Indirizzo</text></g><g transform="translate(562 93) rotate(0 31.191667556762695 12.5)"><text x="0" y="17.52" font-family="Virgil, Segoe UI Emoji" font-size="20px" fill="#1e1e1e" text-anchor="start" style="white-space: pre;" direction="ltr" dominant-baseline="alphabetic">= 22 bit</text></g><g stroke-linecap="round" transform="translate(124 85) rotate(0 66 18)"><path d="M9 0 C50.97 -1.25, 90.65 -1.51, 123 0 M9 0 C54.74 0.49, 99.51 1.08, 123 0 M123 0 C130.88 1.36, 133.89 3.2, 132 9 M123 0 C130.16 -0.61, 132.42 5.11, 132 9 M132 9 C131.22 15.92, 133.47 23.28, 132 27 M132 9 C131.16 12.84, 131.94 18.29, 132 27 M132 27 C133.47 31.61, 130.7 34.13, 123 36 M132 27 C131.44 31.57, 130.33 35.43, 123 36 M123 36 C98.26 35.69, 75.92 33.15, 9 36 M123 36 C82.95 35.08, 42.11 36.22, 9 36 M9 36 C3.1 35.97, 1.52 32.55, 0 27 M9 36 C3.14 34.78, -0.64 33.36, 0 27 M0 27 C0.56 23.41, 0.72 19.97, 0 9 M0 27 C-0.28 23.38, -0.83 20.52, 0 9 M0 9 C0.92 1.61, 4.13 0.72, 9 0 M0 9 C-0.81 3.35, 1.2 -0.52, 9 0" stroke="#1e1e1e" stroke-width="1" fill="none"></path></g><g transform="translate(175.14999961853027 90.5) rotate(0 14.850000381469727 12.5)"><text x="14.850000381469727" y="17.52" font-family="Virgil, Segoe UI Emoji" font-size="20px" fill="#1e1e1e" text-anchor="middle" style="white-space: pre;" direction="ltr" dominant-baseline="alphabetic">Tag</text></g><g stroke-linecap="round" transform="translate(262 84) rotate(0 67 20)"><path d="M10 0 C35.7 -0.06, 61.09 -0.34, 124 0 M10 0 C43.94 1.68, 76.72 1.2, 124 0 M124 0 C130.58 -0.82, 133.04 3.06, 134 10 M124 0 C130.87 -1.38, 133.07 5.15, 134 10 M134 10 C133.97 19.19, 133.91 24.53, 134 30 M134 10 C134.99 17.79, 135.01 25.63, 134 30 M134 30 C135.36 35.83, 131.3 41.16, 124 40 M134 30 C135.33 36.95, 131.83 39.35, 124 40 M124 40 C90.39 39.84, 54.89 41.6, 10 40 M124 40 C87.43 39.93, 50.2 40.41, 10 40 M10 40 C2.83 38.74, 1.64 36.76, 0 30 M10 40 C2.1 39.78, -1.73 37.66, 0 30 M0 30 C-0.61 25.37, 0.38 18.02, 0 10 M0 30 C-0.53 25.18, -0.06 19.24, 0 10 M0 10 C-1.22 2.79, 3.83 1.9, 10 0 M0 10 C-1.32 4.15, 1.99 -1.1, 10 0" stroke="#1e1e1e" stroke-width="1" fill="none"></path></g><g transform="translate(310.67499923706055 91.5) rotate(0 18.325000762939453 12.5)"><text x="18.325000762939453" y="17.52" font-family="Virgil, Segoe UI Emoji" font-size="20px" fill="#1e1e1e" text-anchor="middle" style="white-space: pre;" direction="ltr" dominant-baseline="alphabetic">Line</text></g><g stroke-linecap="round" transform="translate(405 86) rotate(0 67.5 18)"><path d="M9 0 C46.24 -0.44, 85.57 1.87, 126 0 M9 0 C39.19 0.46, 71.54 0.04, 126 0 M126 0 C133.06 1.28, 134.93 3.59, 135 9 M126 0 C130.44 0.94, 134.62 0.72, 135 9 M135 9 C135.62 15.15, 134.54 19.52, 135 27 M135 9 C135.09 13.02, 134.99 17.07, 135 27 M135 27 C133.27 32.65, 130.02 35.02, 126 36 M135 27 C137.25 31.87, 130.07 34.15, 126 36 M126 36 C89.12 35.17, 49.26 36.99, 9 36 M126 36 C89.16 36.08, 52.61 35.37, 9 36 M9 36 C4.21 36.66, -0.98 31.23, 0 27 M9 36 C3.03 37.86, 0.53 34.21, 0 27 M0 27 C0.42 22.34, 0.37 17.51, 0 9 M0 27 C-0.78 20.79, 0.71 15.33, 0 9 M0 9 C-0.81 2, 3.04 -0.2, 9 0 M0 9 C-0.18 3.04, 1.84 0.25, 9 0" stroke="#1e1e1e" stroke-width="1" fill="none"></path></g><g transform="translate(453.61666679382324 91.5) rotate(0 18.883333206176758 12.5)"><text x="18.883333206176758" y="17.52" font-family="Virgil, Segoe UI Emoji" font-size="20px" fill="#1e1e1e" text-anchor="middle" style="white-space: pre;" direction="ltr" dominant-baseline="alphabetic">Byte</text></g><g transform="translate(10 187) rotate(0 28.325000762939453 12.5)"><text x="0" y="17.52" font-family="Virgil, Segoe UI Emoji" font-size="20px" fill="#1e1e1e" text-anchor="start" style="white-space: pre;" direction="ltr" dominant-baseline="alphabetic">Blocco</text></g><g stroke-linecap="round" transform="translate(110 168) rotate(0 217 25.5)"><path d="M12.75 0 C147.85 -1.37, 282.54 -0.7, 421.25 0 M12.75 0 C136.47 -0.26, 259.79 -0.7, 421.25 0 M421.25 0 C429.27 -1.35, 433.97 3.21, 434 12.75 M421.25 0 C428.16 1.43, 434.98 4.89, 434 12.75 M434 12.75 C433 20.74, 432.01 29.59, 434 38.25 M434 12.75 C434.9 19.29, 434.34 26.23, 434 38.25 M434 38.25 C435.66 45.92, 430.1 51.54, 421.25 51 M434 38.25 C433.98 46.85, 429.66 49.73, 421.25 51 M421.25 51 C283.82 49.2, 148.03 51.11, 12.75 51 M421.25 51 C330.62 50.23, 239.34 50.42, 12.75 51 M12.75 51 C3.44 52.3, -0.31 47.95, 0 38.25 M12.75 51 C3.99 52.03, -0.44 48.73, 0 38.25 M0 38.25 C0.4 30.89, -1.85 24.46, 0 12.75 M0 38.25 C-0.28 33.75, 0.32 27.04, 0 12.75 M0 12.75 C-1.47 5.03, 4.36 -1.28, 12.75 0 M0 12.75 C0.9 6.07, 2.32 -1.01, 12.75 0" stroke="#1e1e1e" stroke-width="1" fill="none"></path></g><g transform="translate(564 184) rotate(0 39.525001525878906 12.5)"><text x="0" y="17.52" font-family="Virgil, Segoe UI Emoji" font-size="20px" fill="#1e1e1e" text-anchor="start" style="white-space: pre;" direction="ltr" dominant-baseline="alphabetic">= 33 Byte</text></g><g transform="translate(15 10) rotate(0 88.33333587646484 12.5)"><text x="0" y="17.52" font-family="Virgil, Segoe UI Emoji" font-size="20px" fill="#1e1e1e" text-anchor="start" style="white-space: pre;" direction="ltr" dominant-baseline="alphabetic">100KB sul processore</text></g><g stroke-linecap="round" transform="translate(123 177) rotate(0 27 17.5)"><path d="M8.75 0 C17.03 0.3, 22.42 -2.11, 45.25 0 M8.75 0 C22.98 1.22, 34.67 -0.42, 45.25 0 M45.25 0 C50.51 -0.45, 52.66 2.72, 54 8.75 M45.25 0 C51.11 -0.09, 53.22 5.06, 54 8.75 M54 8.75 C55.36 12.71, 53.24 19.67, 54 26.25 M54 8.75 C53.51 13.58, 53.46 17.63, 54 26.25 M54 26.25 C54.4 32.67, 49.5 34.71, 45.25 35 M54 26.25 C52.41 29.83, 52.13 34.36, 45.25 35 M45.25 35 C33.36 33.33, 20.96 35.31, 8.75 35 M45.25 35 C31.46 34.56, 17.99 34.38, 8.75 35 M8.75 35 C4.28 33.68, 1 33.77, 0 26.25 M8.75 35 C0.79 34.18, -0.4 31.44, 0 26.25 M0 26.25 C1.41 24.21, -0.85 18.87, 0 8.75 M0 26.25 C-0.1 22.58, 0.55 16.84, 0 8.75 M0 8.75 C-1.68 3.83, 2.16 -0.26, 8.75 0 M0 8.75 C1.43 1.38, 1.65 2.22, 8.75 0" stroke="#1e1e1e" stroke-width="1" fill="none"></path></g><g transform="translate(142.77500009536743 182) rotate(0 7.224999904632568 12.5)"><text x="7.224999904632568" y="17.52" font-family="Virgil, Segoe UI Emoji" font-size="20px" fill="#1e1e1e" text-anchor="middle" style="white-space: pre;" direction="ltr" dominant-baseline="alphabetic">V</text></g><g transform="translate(143 229) rotate(0 5 12.5)"><text x="0" y="17.52" font-family="Virgil, Segoe UI Emoji" font-size="20px" fill="#2f9e44" text-anchor="start" style="white-space: pre;" direction="ltr" dominant-baseline="alphabetic">1</text></g><g stroke-linecap="round" transform="translate(183 173) rotate(0 51.5 20)"><path d="M10 0 C28.75 -1.75, 48.76 1.34, 93 0 M10 0 C36.31 -0.87, 63.55 -0.14, 93 0 M93 0 C99.58 -1.7, 104.4 5.1, 103 10 M93 0 C101.39 1.07, 103.82 4.73, 103 10 M103 10 C102.57 15.57, 103.35 21.97, 103 30 M103 10 C101.91 16.95, 103.3 24.7, 103 30 M103 30 C101.61 35.17, 98.29 40.09, 93 40 M103 30 C101.98 38.52, 98.21 41.54, 93 40 M93 40 C66.82 41.31, 42.8 41.96, 10 40 M93 40 C65.18 38.47, 37.84 38.36, 10 40 M10 40 C1.64 38.06, -0.98 36.99, 0 30 M10 40 C1.08 41.29, 1.17 36.42, 0 30 M0 30 C0.51 20.49, 0.56 12.63, 0 10 M0 30 C-1.04 24.32, 0.2 18.76, 0 10 M0 10 C-0.33 1.65, 5.02 -1.82, 10 0 M0 10 C-1.43 5.2, 1.4 -0.93, 10 0" stroke="#1e1e1e" stroke-width="1" fill="none"></path></g><g transform="translate(219.64999961853027 180.5) rotate(0 14.850000381469727 12.5)"><text x="14.850000381469727" y="17.52" font-family="Virgil, Segoe UI Emoji" font-size="20px" fill="#1e1e1e" text-anchor="middle" style="white-space: pre;" direction="ltr" dominant-baseline="alphabetic">Tag</text></g><g transform="translate(195 124) rotate(84.84184411723552 10.149999618530273 22.5)"><text x="0" y="31.536" font-family="Virgil, Segoe UI Emoji" font-size="36px" fill="#1e1e1e" text-anchor="start" style="white-space: pre;" direction="ltr" dominant-baseline="alphabetic">=</text></g><g stroke-linecap="round" transform="translate(298 175) rotate(0 114.5 17.5)"><path d="M8.75 0 C58.21 0.13, 106.15 0.81, 220.25 0 M8.75 0 C74.14 -1.72, 140.39 -1.89, 220.25 0 M220.25 0 C227.3 0.69, 229.51 2.39, 229 8.75 M220.25 0 C224.53 -1.17, 229.69 3.77, 229 8.75 M229 8.75 C228.39 15.42, 228.64 22.12, 229 26.25 M229 8.75 C229.15 15.12, 229.55 21.31, 229 26.25 M229 26.25 C227.23 33.73, 227.5 34.69, 220.25 35 M229 26.25 C230.59 31.23, 223.85 33.1, 220.25 35 M220.25 35 C177.74 35.14, 132.63 32.97, 8.75 35 M220.25 35 C153.59 33.79, 87.85 35.38, 8.75 35 M8.75 35 C4.34 33.4, -1.52 31.38, 0 26.25 M8.75 35 C2.86 37.19, 1.13 31.55, 0 26.25 M0 26.25 C1.53 19.68, -0.29 11.08, 0 8.75 M0 26.25 C-0.17 21.03, 0.21 15.8, 0 8.75 M0 8.75 C-0.87 0.95, 2.4 -0.42, 8.75 0 M0 8.75 C1.99 2.21, 1.02 -1.31, 8.75 0" stroke="#1e1e1e" stroke-width="1" fill="none"></path></g><g transform="translate(381.3999996185303 180) rotate(0 31.100000381469727 12.5)"><text x="31.100000381469727" y="17.52" font-family="Virgil, Segoe UI Emoji" font-size="20px" fill="#1e1e1e" text-anchor="middle" style="white-space: pre;" direction="ltr" dominant-baseline="alphabetic">Blocchi</text></g><g transform="translate(223 229) rotate(0 5 12.5)"><text x="0" y="17.52" font-family="Virgil, Segoe UI Emoji" font-size="20px" fill="#2f9e44" text-anchor="start" style="white-space: pre;" direction="ltr" dominant-baseline="alphabetic">7</text></g><g transform="translate(393 226) rotate(0 28.883333206176758 12.5)"><text x="0" y="17.52" font-family="Virgil, Segoe UI Emoji" font-size="20px" fill="#2f9e44" text-anchor="start" style="white-space: pre;" direction="ltr" dominant-baseline="alphabetic">32Byte</text></g><g transform="translate(309 131) rotate(0 10 12.5)"><text x="0" y="17.52" font-family="Virgil, Segoe UI Emoji" font-size="20px" fill="#2f9e44" text-anchor="start" style="white-space: pre;" direction="ltr" dominant-baseline="alphabetic">10</text></g><g transform="translate(463 132) rotate(0 5 12.5)"><text x="0" y="17.52" font-family="Virgil, Segoe UI Emoji" font-size="20px" fill="#2f9e44" text-anchor="start" style="white-space: pre;" direction="ltr" dominant-baseline="alphabetic">5</text></g></svg>