<svg version="1.1" xmlns="http://www.w3.org/2000/svg" viewBox="0 0 671.6459606574633 451.6774141827226" width="671.6459606574633" height="451.6774141827226" filter="invert(93%) hue-rotate(180deg)">
  <!-- svg-source:excalidraw -->
  
  <defs>
    <style class="style-fonts">
      @font-face {
        font-family: "Virgil";
        src: url("https://excalidraw.com/Virgil.woff2");
      }
      @font-face {
        font-family: "Cascadia";
        src: url("https://excalidraw.com/Cascadia.woff2");
      }
      @font-face {
        font-family: "Assistant";
        src: url("https://excalidraw.com/Assistant-Regular.woff2");
      }
    </style>
    
  </defs>
  <rect x="0" y="0" width="671.6459606574633" height="451.6774141827226" fill="#ffffff"></rect><g stroke-linecap="round"><g transform="translate(118 56.11245877963492) rotate(0 68 0)"><path d="M-0.74 0.61 C22.02 0.78, 113.03 1.28, 135.64 1.03 M1.08 -0.12 C23.72 -0.26, 111.8 -0.57, 134.51 -0.54" stroke="#1e1e1e" stroke-width="2" fill="none"></path></g></g><mask></mask><g transform="translate(174 25.11245877963492) rotate(0 6.108333110809326 12.5)"><text x="0" y="17.52" font-family="Virgil, Segoe UI Emoji" font-size="20px" fill="#1e1e1e" text-anchor="start" style="white-space: pre;" direction="ltr" dominant-baseline="alphabetic">T</text></g><g stroke-linecap="round"><g transform="translate(117 74.11245877963492) rotate(0 -1 -17)"><path d="M-0.26 0.08 C-0.51 -5.66, -1.39 -28.3, -1.67 -34.04 M0.61 -0.36 C0.34 -6.03, -1.46 -27.77, -1.93 -33.36" stroke="#1e1e1e" stroke-width="2" fill="none"></path></g></g><mask></mask><g stroke-linecap="round"><g transform="translate(258 74.11245877963492) rotate(0 -0.5 -19.5)"><path d="M-0.26 0.18 C-0.47 -6.34, -1.31 -33, -1.4 -39.53 M0.6 -0.2 C0.58 -6.63, -0.1 -32.73, -0.37 -39.1" stroke="#1e1e1e" stroke-width="2" fill="none"></path></g></g><mask></mask><g stroke-linecap="round"><g transform="translate(258 56.11245877963492) rotate(0 66.5 -1)"><path d="M-0.2 -0.23 C21.83 -0.55, 110.35 -0.54, 132.7 -0.99 M-1.76 -1.4 C20.03 -2.12, 109.04 -2.46, 131.59 -2.59" stroke="#1e1e1e" stroke-width="2" fill="none"></path></g></g><mask></mask><g stroke-linecap="round"><g transform="translate(391 77.11245877963492) rotate(0 -0.5 -22.5)"><path d="M0.27 -0.27 C0.26 -7.8, -0.18 -37.89, -0.47 -45.26 M-0.25 0.78 C-0.26 -6.67, -0.61 -37.02, -0.62 -44.69" stroke="#1e1e1e" stroke-width="2" fill="none"></path></g></g><mask></mask><g stroke-linecap="round"><g transform="translate(392 54.11245877963492) rotate(0 49 -0.5)"><path d="M1 -0.11 C17.53 -0.26, 82.83 -0.95, 99.02 -0.99 M0.06 -1.22 C16.55 -1.16, 82.38 0.75, 98.61 0.56" stroke="#1e1e1e" stroke-width="2" fill="none"></path></g></g><mask></mask><g transform="translate(516 50.11245877963492) rotate(0 7.5 12.5)"><text x="0" y="17.52" font-family="Virgil, Segoe UI Emoji" font-size="20px" fill="#1e1e1e" text-anchor="start" style="white-space: pre;" direction="ltr" dominant-baseline="alphabetic">...</text></g><g transform="translate(23 99.11245877963492) rotate(0 23.883333206176758 12.5)"><text x="0" y="17.52" font-family="Virgil, Segoe UI Emoji" font-size="20px" fill="#1e1e1e" text-anchor="start" style="white-space: pre;" direction="ltr" dominant-baseline="alphabetic">Clock</text></g><g stroke-linecap="round"><g transform="translate(112 112.11245877963492) rotate(0 35 -0.5)"><path d="M-0.68 0.48 C11.3 0.4, 59.25 -1.48, 70.95 -1.54 M1.16 -0.31 C13.15 -0.14, 59.28 -0.06, 70.49 -0.29" stroke="#1e1e1e" stroke-width="2" fill="none"></path></g></g><mask></mask><g stroke-linecap="round"><g transform="translate(184 136.11245877963492) rotate(0 34.5 -0.5)"><path d="M-0.87 0.34 C10.7 0.18, 56.93 -0.04, 68.53 -0.27 M0.87 -0.53 C12.32 -1.1, 56.18 -2.14, 67.33 -2.01" stroke="#1e1e1e" stroke-width="2" fill="none"></path></g></g><mask></mask><g stroke-linecap="round"><g transform="translate(181 136.11245877963492) rotate(0 -0.5 -12)"><path d="M-0.18 0.18 C-0.47 -3.8, -1.35 -20.18, -1.45 -24.28 M0.73 -0.21 C0.58 -4.08, -0.16 -19.76, -0.45 -23.72" stroke="#1e1e1e" stroke-width="2" fill="none"></path></g></g><mask></mask><g stroke-linecap="round"><g transform="translate(253 136.11245877963492) rotate(0 0.5 -12.5)"><path d="M0.51 0.02 C0.85 -4.14, 1.45 -20.51, 1.53 -24.69 M0.11 -0.44 C0.47 -4.79, 1.28 -21.49, 1.37 -25.5" stroke="#1e1e1e" stroke-width="2" fill="none"></path></g></g><mask></mask><g stroke-linecap="round"><g transform="translate(255 109.11245877963492) rotate(0 31.5 -1)"><path d="M-0.86 -0.01 C9.97 -0.27, 53.53 -0.85, 64.08 -1.02 M0.89 -1.06 C11.73 -1.69, 53.62 -2.33, 63.7 -2.63" stroke="#1e1e1e" stroke-width="2" fill="none"></path></g></g><mask></mask><g stroke-linecap="round"><g transform="translate(317 138.11245877963492) rotate(0 37.5 0)"><path d="M-1.06 -0.28 C11.77 -0.41, 63.51 -1.01, 76.1 -1.07 M0.59 -1.47 C13.43 -1.47, 63.58 -0.4, 75.73 -0.1" stroke="#1e1e1e" stroke-width="2" fill="none"></path></g></g><mask></mask><g stroke-linecap="round"><g transform="translate(317 139.11245877963492) rotate(0 -0.5 -16)"><path d="M0.14 0.28 C-0.06 -5.21, -0.54 -26.93, -0.73 -32.39 M-0.45 -0.05 C-0.73 -5.25, -0.88 -26.54, -1.02 -31.89" stroke="#1e1e1e" stroke-width="2" fill="none"></path></g></g><mask></mask><g transform="translate(423 108.11245877963492) rotate(0 53.608333587646484 12.5)"><text x="0" y="17.52" font-family="Virgil, Segoe UI Emoji" font-size="20px" fill="#1e1e1e" text-anchor="start" style="white-space: pre;" direction="ltr" dominant-baseline="alphabetic">Onda Quadra</text></g><g transform="translate(313 24.11245877963492) rotate(0 6.108333110809326 12.5)"><text x="0" y="17.52" font-family="Virgil, Segoe UI Emoji" font-size="20px" fill="#1e1e1e" text-anchor="start" style="white-space: pre;" direction="ltr" dominant-baseline="alphabetic">T</text></g><g transform="translate(438 27.11245877963492) rotate(0 6.108333110809326 12.5)"><text x="0" y="17.52" font-family="Virgil, Segoe UI Emoji" font-size="20px" fill="#1e1e1e" text-anchor="start" style="white-space: pre;" direction="ltr" dominant-baseline="alphabetic">T</text></g><g transform="translate(10 201.11245877963492) rotate(0 32.78333282470703 12.5)"><text x="0" y="17.52" font-family="Virgil, Segoe UI Emoji" font-size="20px" fill="#1e1e1e" text-anchor="start" style="white-space: pre;" direction="ltr" dominant-baseline="alphabetic">Address</text></g><g stroke-linecap="round" transform="translate(119 194.11245877963492) rotate(0 190 10.5)"><path d="M0.34 2.94 C0.34 2.94, 0.34 2.94, 0.34 2.94 M0.34 2.94 C0.34 2.94, 0.34 2.94, 0.34 2.94 M-0.19 15.74 C4.74 11.31, 8.77 4.35, 13.59 -0.11 M-0.19 15.74 C4.09 9.9, 8.71 5.79, 13.59 -0.11 M5.85 20.99 C14.79 12.6, 19.71 5.05, 24.22 -0.14 M5.85 20.99 C10.62 15.42, 16.04 9.8, 24.22 -0.14 M16.48 20.95 C22.07 14.4, 27.02 9.07, 34.85 -0.18 M16.48 20.95 C23.47 12.25, 30.35 5.31, 34.85 -0.18 M27.11 20.92 C33.34 15.26, 37.91 7.49, 45.48 -0.21 M27.11 20.92 C34.13 13.77, 41.7 3.63, 45.48 -0.21 M37.09 21.64 C41.98 12.8, 52.39 5.72, 55.46 0.51 M37.09 21.64 C41.52 16.08, 46.73 11.12, 55.46 0.51 M47.72 21.6 C51.12 16.9, 53.64 12.49, 66.09 0.47 M47.72 21.6 C54.74 13.85, 60.61 7.39, 66.09 0.47 M58.35 21.57 C64.06 14.44, 67.18 9.27, 76.72 0.44 M58.35 21.57 C62.5 15.9, 65.92 12.5, 76.72 0.44 M68.98 21.53 C77.59 12.16, 82.78 4.57, 87.35 0.4 M68.98 21.53 C76.73 12.76, 83.38 4.77, 87.35 0.4 M79.61 21.5 C82.67 16.34, 88.35 14.63, 97.98 0.37 M79.61 21.5 C86.13 14.13, 90.19 8.72, 97.98 0.37 M90.24 21.47 C98.16 11.62, 104.36 6.85, 108.61 0.33 M90.24 21.47 C95.34 15.99, 98.17 10.46, 108.61 0.33 M100.87 21.43 C106.65 15.51, 113.35 6.5, 119.24 0.3 M100.87 21.43 C107.85 13.09, 113.7 5.29, 119.24 0.3 M111.5 21.4 C117.3 15.99, 121.85 9.87, 129.87 0.26 M111.5 21.4 C117.93 14.09, 124.11 7.65, 129.87 0.26 M122.13 21.36 C131.16 12.86, 137.14 4.12, 140.5 0.23 M122.13 21.36 C129.9 12.98, 137.01 3.53, 140.5 0.23 M132.76 21.33 C140.53 13.66, 145.63 9.59, 151.13 0.2 M132.76 21.33 C136.6 15.83, 140.28 10.78, 151.13 0.2 M143.39 21.29 C149.39 13.24, 154.05 7.98, 161.76 0.16 M143.39 21.29 C149.17 16.66, 153.53 9.75, 161.76 0.16 M154.02 21.26 C160.23 13.88, 163.63 9.08, 172.39 0.13 M154.02 21.26 C159.74 15.54, 164.63 9.1, 172.39 0.13 M164.65 21.22 C172.34 13.56, 178.17 4.37, 183.02 0.09 M164.65 21.22 C170.71 13.66, 177.72 6.41, 183.02 0.09 M175.28 21.19 C179.09 13.6, 183.99 8.82, 193.65 0.06 M175.28 21.19 C181.82 15.02, 188.08 8.14, 193.65 0.06 M185.91 21.16 C189.46 18.72, 192.93 14.03, 204.28 0.02 M185.91 21.16 C192.43 14.87, 196.11 8.35, 204.28 0.02 M196.54 21.12 C203.92 13.08, 208.92 6.39, 214.91 -0.01 M196.54 21.12 C201.34 15.22, 205.08 10.46, 214.91 -0.01 M207.17 21.09 C211.01 13.38, 215.61 10.5, 225.54 -0.05 M207.17 21.09 C213.15 14.57, 217.05 9.25, 225.54 -0.05 M217.8 21.05 C221.71 14.17, 227.47 11.16, 236.17 -0.08 M217.8 21.05 C222.41 16.55, 227.31 12.01, 236.17 -0.08 M228.43 21.02 C234.85 14.39, 238.29 10.22, 246.8 -0.11 M228.43 21.02 C234.43 13.35, 241.82 5.49, 246.8 -0.11 M239.06 20.98 C244.24 12.88, 250.7 7.95, 257.43 -0.15 M239.06 20.98 C242.96 16.13, 248.45 11.79, 257.43 -0.15 M249.69 20.95 C251.92 15.19, 255.78 11.69, 268.06 -0.18 M249.69 20.95 C255.61 16.49, 259.71 10.45, 268.06 -0.18 M259.66 21.67 C265.53 15.07, 271.41 9.86, 278.69 -0.22 M259.66 21.67 C266.58 13.75, 273.64 5.11, 278.69 -0.22 M270.29 21.63 C274.76 16.92, 278.43 10.9, 288.66 0.5 M270.29 21.63 C274.29 16.17, 277.49 12.12, 288.66 0.5 M280.92 21.6 C286.1 12.58, 293.1 5.95, 299.29 0.47 M280.92 21.6 C288.39 14.22, 295.13 6, 299.29 0.47 M291.55 21.57 C299.2 14.71, 302.19 7.82, 309.92 0.43 M291.55 21.57 C299.61 12.58, 305.36 4.65, 309.92 0.43 M302.18 21.53 C307.92 18.78, 309.12 12.15, 320.55 0.4 M302.18 21.53 C306.66 16.8, 311.33 13.17, 320.55 0.4 M312.81 21.5 C318.04 15.23, 322.53 12.13, 331.18 0.36 M312.81 21.5 C319.59 13.13, 327.27 6.16, 331.18 0.36 M323.44 21.46 C330.69 13.97, 338.42 5.03, 341.81 0.33 M323.44 21.46 C330.24 14.14, 337.16 5.29, 341.81 0.33 M334.07 21.43 C338.74 18.12, 342.92 11.82, 352.44 0.3 M334.07 21.43 C339.09 14.21, 344.91 7.27, 352.44 0.3 M344.7 21.39 C349.22 15.98, 355.18 9.6, 363.07 0.26 M344.7 21.39 C347.34 17.18, 350.99 12.5, 363.07 0.26 M355.33 21.36 C362 17.03, 366.66 11.07, 373.7 0.23 M355.33 21.36 C362.94 13.41, 369.81 5.9, 373.7 0.23 M365.96 21.32 C369.69 14.4, 376.38 12.85, 380.4 4.72 M365.96 21.32 C370.77 15.53, 377.91 7.95, 380.4 4.72 M377.25 20.53 C377.85 19.47, 378.56 18.91, 379.22 18.27 M377.25 20.53 C377.81 19.67, 378.45 18.82, 379.22 18.27" stroke="#b2f2bb" stroke-width="1" fill="none"></path><path d="M5.25 0 C85.14 2.51, 164.26 2.68, 374.75 0 M5.25 0 C124.28 -0.7, 244.77 -0.51, 374.75 0 M374.75 0 C378 -1.21, 379.4 1.72, 380 5.25 M374.75 0 C376.15 2.21, 378.67 1.68, 380 5.25 M380 5.25 C379.1 9.15, 380.87 12.65, 380 15.75 M380 5.25 C379.42 7.13, 380 9.7, 380 15.75 M380 15.75 C379.18 19.44, 377.81 22.98, 374.75 21 M380 15.75 C381.51 17.91, 378.09 22.11, 374.75 21 M374.75 21 C294.46 21.23, 211.73 20.4, 5.25 21 M374.75 21 C276.25 19.21, 178.66 18.35, 5.25 21 M5.25 21 C0.92 19.15, -0.75 17.85, 0 15.75 M5.25 21 C3.48 22.95, 0.31 17.37, 0 15.75 M0 15.75 C0.99 13.44, -0.24 8.96, 0 5.25 M0 15.75 C0.1 12.96, 0.33 9.56, 0 5.25 M0 5.25 C0.14 2.2, 0.48 0.37, 5.25 0 M0 5.25 C-0.46 0.7, -0.26 -2.3, 5.25 0" stroke="#1e1e1e" stroke-width="2" fill="none"></path></g><g stroke-linecap="round"><g transform="translate(129 253.11245877963492) rotate(0 57.5 -0.5)"><path d="M0.59 0.08 C19.61 -0.17, 96.39 -1.39, 115.28 -1.57 M-0.55 -0.93 C18.23 -1.01, 95.01 -0.55, 114.48 -0.33" stroke="#1e1e1e" stroke-width="2" fill="none"></path></g></g><mask></mask><g transform="translate(137 227.11245877963492) rotate(0 49.15833282470703 12.5)"><text x="0" y="17.52" font-family="Virgil, Segoe UI Emoji" font-size="20px" fill="#1e1e1e" text-anchor="start" style="white-space: pre;" direction="ltr" dominant-baseline="alphabetic">Call address</text></g><g stroke-linecap="round" transform="translate(525 307.11245877963495) rotate(0 60.5 17.5)"><path d="M2.33 2.02 C2.33 2.02, 2.33 2.02, 2.33 2.02 M2.33 2.02 C2.33 2.02, 2.33 2.02, 2.33 2.02 M0.49 16.33 C5.77 12.2, 11.81 4.14, 14.27 0.48 M0.49 16.33 C4.02 12.3, 7.87 6.94, 14.27 0.48 M0.63 28.37 C9.66 18.51, 15.85 8.82, 24.9 0.45 M0.63 28.37 C5.93 22.23, 11.56 15.32, 24.9 0.45 M5.35 35.13 C18.03 22.14, 27.66 6.5, 35.53 0.41 M5.35 35.13 C11.67 26.66, 19.57 21.02, 35.53 0.41 M15.98 35.09 C25.97 24.63, 35.7 12.52, 46.16 0.38 M15.98 35.09 C25.68 23.5, 36.55 11.09, 46.16 0.38 M26.61 35.06 C34.07 25.12, 44.81 14.78, 56.79 0.34 M26.61 35.06 C36.81 25.63, 45.36 13.54, 56.79 0.34 M37.24 35.02 C42.69 27.59, 49.75 17.31, 67.42 0.31 M37.24 35.02 C44.71 26.91, 52.15 19.02, 67.42 0.31 M47.87 34.99 C54.86 26.42, 67.36 14.12, 77.4 1.03 M47.87 34.99 C55.28 26.02, 63.48 17.08, 77.4 1.03 M58.5 34.96 C65.77 27.66, 74.18 21.23, 88.03 0.99 M58.5 34.96 C65.88 25.98, 74.77 16.83, 88.03 0.99 M69.13 34.92 C81.62 19.84, 93.33 6.65, 98.66 0.96 M69.13 34.92 C79.09 22.02, 89.86 9.98, 98.66 0.96 M79.11 35.64 C90.74 23.38, 102.54 9.39, 109.29 0.92 M79.11 35.64 C89.81 23.24, 101.6 10.16, 109.29 0.92 M89.74 35.61 C96.1 27.31, 103.91 21.36, 118.6 2.4 M89.74 35.61 C99.48 26.28, 106.98 14.63, 118.6 2.4 M100.37 35.57 C105.45 29.24, 110.57 23.8, 121.36 11.42 M100.37 35.57 C107.71 28, 112.31 21.01, 121.36 11.42 M111 35.54 C111.82 31.49, 117 31.1, 121.49 23.46 M111 35.54 C115.32 30.72, 119.79 26.02, 121.49 23.46" stroke="#b2f2bb" stroke-width="1" fill="none"></path><path d="M8.75 0 C36.88 1.6, 62.54 -1.5, 112.25 0 M8.75 0 C41.21 -0.43, 72.16 0.44, 112.25 0 M112.25 0 C118.23 1.23, 122.78 3.32, 121 8.75 M112.25 0 C120.23 -1.25, 123.29 4.17, 121 8.75 M121 8.75 C120.66 13.44, 119.17 18.26, 121 26.25 M121 8.75 C120.64 13.48, 120.71 17.59, 121 26.25 M121 26.25 C119.01 30.77, 116.64 33.09, 112.25 35 M121 26.25 C119.17 31.07, 118.72 35.36, 112.25 35 M112.25 35 C72.59 37.94, 27.93 34.7, 8.75 35 M112.25 35 C83.55 36.83, 55.54 35.06, 8.75 35 M8.75 35 C2.23 36.95, -0.39 30.71, 0 26.25 M8.75 35 C1.61 35.32, -0.32 33.73, 0 26.25 M0 26.25 C-1.05 18.8, 1.38 12.49, 0 8.75 M0 26.25 C0.1 20.29, 0.15 14.33, 0 8.75 M0 8.75 C-1.27 1.02, 1.13 1.12, 8.75 0 M0 8.75 C-0.17 3.84, 3.17 1.58, 8.75 0" stroke="#1e1e1e" stroke-width="2" fill="none"></path></g><g stroke-linecap="round"><g transform="translate(259 82.11245877963492) rotate(0 0.5 136.5)"><path d="M-1.17 -0.47 C-0.71 45.01, 1.67 228.01, 1.98 273.74" stroke="#1e1e1e" stroke-width="2.5" fill="none" stroke-dasharray="8 10"></path></g></g><mask></mask><g stroke-linecap="round"><g transform="translate(502 24.11245877963492) rotate(0 3.5 183.5)"><path d="M0.75 0.49 C2.23 61.5, 6.83 305.85, 8.05 366.85" stroke="#1e1e1e" stroke-width="2.5" fill="none" stroke-dasharray="8 10"></path></g></g><mask></mask><g transform="translate(28 313.11245877963495) rotate(0 18.883333206176758 12.5)"><text x="0" y="17.52" font-family="Virgil, Segoe UI Emoji" font-size="20px" fill="#1e1e1e" text-anchor="start" style="white-space: pre;" direction="ltr" dominant-baseline="alphabetic">Data</text></g><g stroke-linecap="round"><g transform="translate(584 391.11245877963495) rotate(0 -2.5 -169)"><path d="M0.19 0.4 C-0.49 -55.71, -3.84 -280.51, -4.82 -336.91" stroke="#1e1e1e" stroke-width="4.5" fill="none" stroke-dasharray="1.5 10"></path></g></g><mask></mask><g transform="translate(534 25.11245877963492) rotate(0 13.883333206176758 12.5)"><text x="0" y="17.52" font-family="Virgil, Segoe UI Emoji" font-size="20px" fill="#1e1e1e" text-anchor="start" style="white-space: pre;" direction="ltr" dominant-baseline="alphabetic">T/2</text></g><g transform="translate(598 23.11245877963492) rotate(0 13.883333206176758 12.5)"><text x="0" y="17.52" font-family="Virgil, Segoe UI Emoji" font-size="20px" fill="#1e1e1e" text-anchor="start" style="white-space: pre;" direction="ltr" dominant-baseline="alphabetic">T/2</text></g><g transform="translate(601 360.11245877963495) rotate(0 20.549999237060547 12.5)"><text x="0" y="17.52" font-family="Virgil, Segoe UI Emoji" font-size="20px" fill="#1e1e1e" text-anchor="start" style="white-space: pre;" direction="ltr" dominant-baseline="alphabetic">Read</text></g><g transform="translate(489 411.11245877963495) rotate(0 57.483333587646484 12.5)"><text x="0" y="17.52" font-family="Virgil, Segoe UI Emoji" font-size="20px" fill="#1e1e1e" text-anchor="start" style="white-space: pre;" direction="ltr" dominant-baseline="alphabetic">Bleeding edge</text></g><g stroke-linecap="round"><g transform="translate(661 11.11245877963492) rotate(0 0 214.5)"><path d="M0.43 -0.04 C0.61 71.51, 0.67 357.35, 0.64 429.02 M-0.8 -1.11 C-0.69 70.68, -0.04 359.02, 0.02 430.56" stroke="#1e1e1e" stroke-width="1" fill="none"></path></g></g><mask></mask></svg>